<?xml version="1.0" encoding="UTF-8" standalone="no"?>
<!DOCTYPE svg PUBLIC "-//W3C//DTD SVG 1.1//EN" "http://www.w3.org/Graphics/SVG/1.1/DTD/svg11.dtd">
<svg width="100%" height="100%" viewBox="0 0 72 72" version="1.1" xmlns="http://www.w3.org/2000/svg" xmlns:xlink="http://www.w3.org/1999/xlink" xml:space="preserve" xmlns:serif="http://www.serif.com/" style="fill-rule:evenodd;clip-rule:evenodd;stroke-linecap:round;">
    <path d="M72,16L72,56C72,64.831 64.831,72 56,72L16,72C7.169,72 0,64.831 0,56L0,16C0,7.169 7.169,0 16,0L56,0C64.831,0 72,7.169 72,16Z" style="fill:rgb(228,245,236);"/>
    <g transform="matrix(1,0,0,1,2,4.540755)">
        <g transform="matrix(0.970361,0.241659,-0.241659,0.970361,12.00797,-9.655873)">
            <g transform="matrix(-0.706841,-0.51339,0.511735,-0.704562,43.720985,81.5168)">
                <path d="M20,20L52,52" style="fill:none;fill-rule:nonzero;stroke:rgb(14,107,69);stroke-width:2.8px;"/>
            </g>
            <g transform="matrix(-0.706841,-0.51339,0.511735,-0.704562,43.720985,81.5168)">
                <circle cx="55" cy="55" r="6" style="fill:none;stroke:rgb(245,166,35);stroke-width:2.5px;stroke-linecap:butt;"/>
            </g>
            <g transform="matrix(-0.131545,-0.095544,0.095236,-0.131121,4.770362,31.911708)">
                <circle cx="55" cy="55" r="6" style="fill:none;stroke:rgb(245,166,35);stroke-width:2.5px;stroke-linecap:butt;"/>
            </g>
        </g>
        <g transform="matrix(0.978832,-0.204668,0.204668,0.978832,-4.108896,6.142547)">
            <g transform="matrix(-0.706841,-0.51339,0.511735,-0.704562,43.720985,81.5168)">
                <path d="M52,20L20,52" style="fill:none;fill-rule:nonzero;stroke:rgb(14,107,69);stroke-width:2.8px;"/>
            </g>
            <g transform="matrix(-0.706841,-0.51339,0.511735,-0.704562,43.720985,81.5168)">
                <circle cx="17" cy="55" r="6" style="fill:none;stroke:rgb(245,166,35);stroke-width:2.5px;stroke-linecap:butt;"/>
            </g>
        </g>
    </g>
    <path d="M14,14L18,14" style="fill:none;stroke:rgb(14,107,69);stroke-width:1px;stroke-linejoin:round;stroke-miterlimit:1.5;"/>
    <g transform="matrix(0.75,0,0,1,4.5,5)">
        <path d="M14,14L18,14" style="fill:none;stroke:rgb(14,107,69);stroke-width:1.13px;stroke-linejoin:round;stroke-miterlimit:1.5;"/>
    </g>
    <g transform="matrix(1,0,0,1,0,10)">
        <path d="M14,14L18,14" style="fill:none;stroke:rgb(14,107,69);stroke-width:1px;stroke-linejoin:round;stroke-miterlimit:1.5;"/>
    </g>
    <g transform="matrix(0.75,0,0,1,4.5,15)">
        <path d="M14,14L18,14" style="fill:none;stroke:rgb(14,107,69);stroke-width:1.13px;stroke-linejoin:round;stroke-miterlimit:1.5;"/>
    </g>
    <g transform="matrix(1,0,0,1,0,20)">
        <path d="M14,14L18,14" style="fill:none;stroke:rgb(14,107,69);stroke-width:1px;stroke-linejoin:round;stroke-miterlimit:1.5;"/>
    </g>
    <g transform="matrix(0.75,0,0,1,4.5,25)">
        <path d="M14,14L18,14" style="fill:none;stroke:rgb(14,107,69);stroke-width:1.13px;stroke-linejoin:round;stroke-miterlimit:1.5;"/>
    </g>
    <g transform="matrix(1,0,0,1,0,30)">
        <path d="M14,14L18,14" style="fill:none;stroke:rgb(14,107,69);stroke-width:1px;stroke-linejoin:round;stroke-miterlimit:1.5;"/>
    </g>
    <g transform="matrix(0.75,0,0,1,4.5,35)">
        <path d="M14,14L18,14" style="fill:none;stroke:rgb(14,107,69);stroke-width:1.13px;stroke-linejoin:round;stroke-miterlimit:1.5;"/>
    </g>
    <g transform="matrix(1,0,0,1,0,40)">
        <path d="M14,14L18,14" style="fill:none;stroke:rgb(14,107,69);stroke-width:1px;stroke-linejoin:round;stroke-miterlimit:1.5;"/>
    </g>
    <g transform="matrix(0.75,0,0,1,4.5,45)">
        <path d="M14,14L18,14" style="fill:none;stroke:rgb(14,107,69);stroke-width:1.13px;stroke-linejoin:round;stroke-miterlimit:1.5;"/>
    </g>
    <g transform="matrix(1,-0.000494,0.000597,1.209042,-0.999779,-5.195818)">
        <rect x="8" y="14" width="11" height="43" style="fill:none;stroke:rgb(14,107,69);stroke-width:0.9px;stroke-linejoin:round;stroke-miterlimit:1.5;"/>
    </g>
</svg>
