<?xml version="1.0" encoding="UTF-8" standalone="no"?>
<!DOCTYPE svg PUBLIC "-//W3C//DTD SVG 1.1//EN" "http://www.w3.org/Graphics/SVG/1.1/DTD/svg11.dtd">
<svg width="100%" height="100%" viewBox="0 0 72 72" version="1.1" xmlns="http://www.w3.org/2000/svg" xmlns:xlink="http://www.w3.org/1999/xlink" xml:space="preserve" xmlns:serif="http://www.serif.com/" style="fill-rule:evenodd;clip-rule:evenodd;stroke-linejoin:round;">
    <path d="M72,16L72,56C72,64.831 64.831,72 56,72L16,72C7.169,72 0,64.831 0,56L0,16C0,7.169 7.169,0 16,0L56,0C64.831,0 72,7.169 72,16Z" style="fill:rgb(255,244,224);"/>
    <g transform="matrix(1.05,0,0,1,-1.8,0)">
        <path d="M36,12L40,28L56,28L44,38L48,54L36,44L24,54L28,38L16,28L32,28L36,12Z" style="fill:rgb(245,166,35);fill-rule:nonzero;stroke:rgb(14,107,69);stroke-width:1.5px;"/>
    </g>
</svg>
