<?xml version="1.0" encoding="UTF-8" standalone="no"?>
<!DOCTYPE svg PUBLIC "-//W3C//DTD SVG 1.1//EN" "http://www.w3.org/Graphics/SVG/1.1/DTD/svg11.dtd">
<svg width="100%" height="100%" viewBox="0 0 72 72" version="1.1" xmlns="http://www.w3.org/2000/svg" xmlns:xlink="http://www.w3.org/1999/xlink" xml:space="preserve" xmlns:serif="http://www.serif.com/" style="fill-rule:evenodd;clip-rule:evenodd;stroke-linecap:round;">
    <path d="M26,42L26,56C26,57.104 25.104,58 24,58L16,58C14.896,58 14,57.104 14,56L14,42C14,40.896 14.896,40 16,40L24,40C25.104,40 26,40.896 26,42Z" style="fill:rgb(14,107,69);"/>
    <path d="M42,30L42,56C42,57.104 41.104,58 40,58L32,58C30.896,58 30,57.104 30,56L30,30C30,28.896 30.896,28 32,28L40,28C41.104,28 42,28.896 42,30Z" style="fill:rgb(29,176,105);"/>
    <path d="M58,20L58,56C58,57.104 57.104,58 56,58L48,58C46.896,58 46,57.104 46,56L46,20C46,18.896 46.896,18 48,18L56,18C57.104,18 58,18.896 58,20Z" style="fill:rgb(14,107,69);"/>
    <path d="M12,58L60,58" style="fill:none;fill-rule:nonzero;stroke:rgb(14,107,69);stroke-width:2px;"/>
    <path d="M20,46L52,22" style="fill:none;fill-rule:nonzero;stroke:rgb(245,166,35);stroke-width:2px;stroke-linejoin:round;"/>
</svg>
