<?xml version="1.0" encoding="UTF-8" standalone="no"?>
<!DOCTYPE svg PUBLIC "-//W3C//DTD SVG 1.1//EN" "http://www.w3.org/Graphics/SVG/1.1/DTD/svg11.dtd">
<svg width="100%" height="100%" viewBox="0 0 72 72" version="1.1" xmlns="http://www.w3.org/2000/svg" xmlns:xlink="http://www.w3.org/1999/xlink" xml:space="preserve" xmlns:serif="http://www.serif.com/" style="fill-rule:evenodd;clip-rule:evenodd;">
    <path d="M60,21L60,55C60,57.76 57.76,60 55,60L17,60C14.24,60 12,57.76 12,55L12,21C12,18.24 14.24,16 17,16L55,16C57.76,16 60,18.24 60,21Z" style="fill:none;stroke:rgb(14,107,69);stroke-width:2.8px;"/>
    <path d="M60,20L60,26C60,28.208 58.208,30 56,30L16,30C13.792,30 12,28.208 12,26L12,20C12,17.792 13.792,16 16,16L56,16C58.208,16 60,17.792 60,20Z" style="fill:rgb(14,107,69);"/>
    <path d="M24,12L24,22" style="fill:none;fill-rule:nonzero;stroke:rgb(14,107,69);stroke-width:3px;stroke-linecap:round;"/>
    <path d="M48,12L48,22" style="fill:none;fill-rule:nonzero;stroke:rgb(14,107,69);stroke-width:3px;stroke-linecap:round;"/>
    <circle cx="24" cy="38" r="2.5" style="fill:rgb(14,107,69);"/>
    <circle cx="36" cy="38" r="2.5" style="fill:rgb(14,107,69);"/>
    <circle cx="48" cy="38" r="2.5" style="fill:rgb(245,166,35);"/>
    <circle cx="24" cy="50" r="2.5" style="fill:rgb(14,107,69);"/>
    <circle cx="36" cy="50" r="2.5" style="fill:rgb(14,107,69);"/>
</svg>
