<?xml version="1.0" encoding="UTF-8" standalone="no"?>
<!DOCTYPE svg PUBLIC "-//W3C//DTD SVG 1.1//EN" "http://www.w3.org/Graphics/SVG/1.1/DTD/svg11.dtd">
<svg width="100%" height="100%" viewBox="0 0 72 72" version="1.1" xmlns="http://www.w3.org/2000/svg" xmlns:xlink="http://www.w3.org/1999/xlink" xml:space="preserve" xmlns:serif="http://www.serif.com/" style="fill-rule:evenodd;clip-rule:evenodd;stroke-linecap:round;">
    <path d="M72,16L72,56C72,64.831 64.831,72 56,72L16,72C7.169,72 0,64.831 0,56L0,16C0,7.169 7.169,0 16,0L56,0C64.831,0 72,7.169 72,16Z" style="fill:rgb(228,245,236);"/>
    <path d="M52,12L26,58" style="fill:none;fill-rule:nonzero;stroke:rgb(14,107,69);stroke-width:3px;"/>
    <g transform="matrix(1,0,0,1,2,-4)">
        <path d="M23,55L31,58C28.449,63.971 25.823,70.296 25.823,70.296L23,70.286L25.839,64.054C25.839,64.054 19.691,69.185 18,68C17.109,67.84 14.544,66.333 14.544,66.333C15.756,65.152 16.095,64.25 16.095,64.25C16.095,64.25 14.903,64.408 13.06,65.361L9.371,62C9.371,62 19.157,60.421 23,55Z" style="fill:rgb(29,176,105);fill-rule:nonzero;stroke:rgb(14,107,69);stroke-width:2px;stroke-linecap:butt;stroke-linejoin:round;"/>
    </g>
    <path d="M44,24L44,30" style="fill:none;fill-rule:nonzero;stroke:rgb(245,166,35);stroke-width:2px;"/>
    <path d="M41,27L47,27" style="fill:none;fill-rule:nonzero;stroke:rgb(245,166,35);stroke-width:2px;"/>
    <path d="M54,36L54,40" style="fill:none;fill-rule:nonzero;stroke:rgb(245,166,35);stroke-width:1.8px;"/>
    <path d="M52,38L56,38" style="fill:none;fill-rule:nonzero;stroke:rgb(245,166,35);stroke-width:1.8px;"/>
</svg>
