<?xml version="1.0" encoding="UTF-8" standalone="no"?>
<!DOCTYPE svg PUBLIC "-//W3C//DTD SVG 1.1//EN" "http://www.w3.org/Graphics/SVG/1.1/DTD/svg11.dtd">
<svg width="100%" height="100%" viewBox="0 0 1500 400" version="1.1" xmlns="http://www.w3.org/2000/svg" xmlns:xlink="http://www.w3.org/1999/xlink" xml:space="preserve" xmlns:serif="http://www.serif.com/" style="fill-rule:evenodd;clip-rule:evenodd;stroke-linejoin:round;stroke-miterlimit:2;">
    <g transform="matrix(1.04802,0,0,1.107018,524.881956,224.202758)">
        <g transform="matrix(152.944025,0,0,212.106829,-212.859899,62.419212)">
            <path d="M0.035,-0.235L0.308,-0.235C0.313,-0.221 0.326,-0.209 0.349,-0.2C0.372,-0.19 0.402,-0.182 0.441,-0.177C0.479,-0.173 0.523,-0.17 0.574,-0.17C0.624,-0.17 0.663,-0.172 0.693,-0.175C0.721,-0.177 0.742,-0.183 0.754,-0.191C0.766,-0.198 0.772,-0.209 0.772,-0.222C0.772,-0.235 0.762,-0.245 0.743,-0.252C0.724,-0.259 0.689,-0.263 0.64,-0.266C0.591,-0.269 0.521,-0.27 0.432,-0.27C0.365,-0.27 0.308,-0.273 0.26,-0.28C0.211,-0.286 0.171,-0.296 0.141,-0.309C0.11,-0.323 0.087,-0.341 0.072,-0.361C0.057,-0.383 0.05,-0.408 0.05,-0.437C0.05,-0.488 0.067,-0.529 0.102,-0.562C0.136,-0.596 0.188,-0.62 0.258,-0.637C0.327,-0.653 0.414,-0.661 0.519,-0.661C0.672,-0.661 0.789,-0.639 0.871,-0.595C0.951,-0.55 0.992,-0.486 0.992,-0.403L0.733,-0.403C0.73,-0.425 0.709,-0.442 0.671,-0.454C0.633,-0.465 0.579,-0.471 0.509,-0.471C0.44,-0.471 0.388,-0.467 0.354,-0.459C0.321,-0.451 0.304,-0.437 0.304,-0.418C0.304,-0.408 0.309,-0.4 0.318,-0.394C0.327,-0.388 0.343,-0.383 0.366,-0.38C0.39,-0.376 0.422,-0.373 0.464,-0.372C0.506,-0.371 0.559,-0.37 0.624,-0.37C0.695,-0.37 0.756,-0.366 0.806,-0.359C0.856,-0.353 0.896,-0.342 0.927,-0.328C0.958,-0.314 0.981,-0.296 0.995,-0.275C1.009,-0.253 1.016,-0.227 1.016,-0.198C1.016,-0.147 1,-0.106 0.968,-0.074C0.936,-0.042 0.885,-0.018 0.816,-0.003C0.747,0.012 0.656,0.02 0.544,0.02C0.481,0.02 0.423,0.016 0.369,0.009C0.317,0.002 0.269,-0.009 0.228,-0.024C0.187,-0.038 0.152,-0.055 0.123,-0.076C0.094,-0.097 0.072,-0.121 0.058,-0.147C0.043,-0.174 0.035,-0.203 0.035,-0.235Z" style="fill:white;fill-rule:nonzero;"/>
        </g>
        <g transform="matrix(152.944025,0,0,212.106829,-55.939331,62.419212)">
            <path d="M0.721,-0.176L0.957,-0.176C0.951,-0.137 0.932,-0.104 0.899,-0.075C0.867,-0.046 0.82,-0.024 0.759,-0.009C0.697,0.007 0.618,0.015 0.523,0.015C0.422,0.015 0.335,0.007 0.263,-0.009C0.19,-0.025 0.133,-0.052 0.094,-0.09C0.055,-0.128 0.035,-0.179 0.035,-0.244C0.035,-0.308 0.054,-0.359 0.092,-0.398C0.131,-0.436 0.186,-0.463 0.259,-0.48C0.332,-0.497 0.42,-0.505 0.523,-0.505C0.624,-0.505 0.707,-0.496 0.772,-0.478C0.837,-0.46 0.884,-0.431 0.915,-0.391C0.946,-0.35 0.96,-0.296 0.959,-0.227L0.279,-0.227C0.282,-0.21 0.292,-0.194 0.307,-0.179C0.323,-0.164 0.347,-0.152 0.381,-0.144C0.413,-0.135 0.458,-0.13 0.513,-0.13C0.57,-0.13 0.618,-0.134 0.654,-0.142C0.692,-0.15 0.714,-0.161 0.721,-0.176ZM0.513,-0.36C0.442,-0.36 0.389,-0.352 0.352,-0.337C0.315,-0.322 0.293,-0.306 0.286,-0.291L0.726,-0.291C0.721,-0.308 0.703,-0.324 0.67,-0.339C0.637,-0.353 0.585,-0.36 0.513,-0.36Z" style="fill:white;fill-rule:nonzero;"/>
        </g>
        <g transform="matrix(152.944025,0,0,212.106829,91.498709,62.419212)">
            <path d="M0.02,-0.49L0.608,-0.49L0.608,-0.34L0.02,-0.34L0.02,-0.49ZM0.194,-0.64L0.434,-0.64L0.434,-0L0.194,-0L0.194,-0.64Z" style="fill:white;fill-rule:nonzero;"/>
        </g>
        <g transform="matrix(152.944025,0,0,212.106829,182.959237,62.419212)">
            <path d="M0.02,-0.49L0.608,-0.49L0.608,-0.34L0.02,-0.34L0.02,-0.49ZM0.194,-0.64L0.434,-0.64L0.434,-0L0.194,-0L0.194,-0.64Z" style="fill:white;fill-rule:nonzero;"/>
        </g>
        <g transform="matrix(152.944025,0,0,212.106829,274.419763,62.419212)">
            <rect x="0.06" y="-0.69" width="0.24" height="0.69" style="fill:white;"/>
        </g>
        <g transform="matrix(152.944025,0,0,212.106829,324.891292,62.419212)">
            <path d="M0.721,-0.176L0.957,-0.176C0.951,-0.137 0.932,-0.104 0.899,-0.075C0.867,-0.046 0.82,-0.024 0.759,-0.009C0.697,0.007 0.618,0.015 0.523,0.015C0.422,0.015 0.335,0.007 0.263,-0.009C0.19,-0.025 0.133,-0.052 0.094,-0.09C0.055,-0.128 0.035,-0.179 0.035,-0.244C0.035,-0.308 0.054,-0.359 0.092,-0.398C0.131,-0.436 0.186,-0.463 0.259,-0.48C0.332,-0.497 0.42,-0.505 0.523,-0.505C0.624,-0.505 0.707,-0.496 0.772,-0.478C0.837,-0.46 0.884,-0.431 0.915,-0.391C0.946,-0.35 0.96,-0.296 0.959,-0.227L0.279,-0.227C0.282,-0.21 0.292,-0.194 0.307,-0.179C0.323,-0.164 0.347,-0.152 0.381,-0.144C0.413,-0.135 0.458,-0.13 0.513,-0.13C0.57,-0.13 0.618,-0.134 0.654,-0.142C0.692,-0.15 0.714,-0.161 0.721,-0.176ZM0.513,-0.36C0.442,-0.36 0.389,-0.352 0.352,-0.337C0.315,-0.322 0.293,-0.306 0.286,-0.291L0.726,-0.291C0.721,-0.308 0.703,-0.324 0.67,-0.339C0.637,-0.353 0.585,-0.36 0.513,-0.36Z" style="fill:white;fill-rule:nonzero;"/>
        </g>
    </g>
    <g transform="matrix(1,0,0,1,187,568.854573)">
        <g transform="matrix(1.066731,0,0,1.071448,-778.658035,-697.287709)">
            <g transform="matrix(1,0,0,1,2,0)">
                <g transform="matrix(1.297614,0,0,1.297614,518.25516,793.99435)">
                    <path d="M237.535,-409.426C237.739,-409.342 237.88,-409.153 237.902,-408.934C237.923,-408.715 237.822,-408.501 237.639,-408.379C236.758,-407.792 235.57,-407 235.57,-407L207,-422C207,-422 232.088,-411.669 237.535,-409.426Z" style="fill:rgb(254,132,1);"/>
                </g>
                <g transform="matrix(-1.297614,0,0,1.297614,923.075896,793.277782)">
                    <path d="M236.8,-409.729C237.149,-409.585 237.39,-409.262 237.427,-408.887C237.464,-408.512 237.291,-408.147 236.978,-407.938C236.26,-407.46 235.57,-407 235.57,-407C225.804,-411.803 216.306,-416.824 207,-422C207,-422 230.145,-412.469 236.8,-409.729Z" style="fill:rgb(254,132,1);"/>
                </g>
                <g transform="matrix(0.941391,0,0,1.02868,47.473355,-3.513695)">
                    <path d="M631.622,219.307C636.263,185.555 659.414,160.706 688.042,154.49C688.548,154.386 689.079,154.487 689.498,154.766C689.917,155.046 690.184,155.478 690.23,155.951C690.836,162.129 692.77,182.086 693.711,191.792C693.731,191.991 693.914,192.142 694.132,192.138C694.349,192.134 694.527,191.977 694.538,191.778C695.2,179.923 696.721,152.722 696.721,152.722C696.981,147.692 696.529,145.884 699.565,145.028C712.618,141.345 729.582,144.498 729.582,144.498C733.049,145.459 733.125,146.146 733.862,152.629C733.862,152.629 734.402,178.53 734.653,190.546C734.657,190.743 734.827,190.902 735.042,190.911C735.257,190.919 735.441,190.773 735.464,190.578C736.553,181.112 738.633,163.043 739.383,156.524C739.454,155.9 739.815,155.334 740.374,154.97C740.933,154.606 741.635,154.479 742.303,154.621C772.775,161.392 794.096,190.308 797.594,219.307C800.989,219.686 804.824,219.875 808.84,221.526C809.723,221.894 810.482,222.473 811.037,223.202C817.003,230.922 818.478,236.977 819.376,242.817C819.437,243.216 819.264,243.615 818.921,243.869C818.579,244.122 818.116,244.192 817.702,244.054C784.87,233.078 751.826,222.982 717.17,215.843C715.854,215.573 714.492,215.557 713.169,215.798C678.841,222.082 645.315,232.772 612.291,244.817C611.9,244.96 611.457,244.912 611.114,244.689C610.77,244.466 610.573,244.1 610.591,243.715C611.306,231.102 619.778,221.25 623.387,219.785C623.589,219.718 623.799,219.673 624.012,219.649C624.908,219.54 628.109,219.244 631.622,219.307Z" style="fill:rgb(254,132,1);"/>
                </g>
            </g>
        </g>
        <g transform="matrix(0.866014,0,0,0.869844,-157.424255,-377.543749)">
            <path d="M45.607,-41.313L90.049,-63.761C121.688,-74.424 151.734,-84.223 173.393,-90.197C202.152,-82.14 227.528,-73.204 254.348,-64.077L300.014,-40.102C300.014,-40.102 299.83,39.632 299.733,81.596C299.689,101.064 292.54,119.846 279.628,134.416C252.06,165.622 214.136,188.331 177.041,209.323C174.47,210.778 171.318,210.748 168.776,209.245C131.789,187.342 94.293,162.369 69.04,137.128C54.112,122.163 45.723,101.893 45.71,80.756C45.656,37.972 45.607,-41.313 45.607,-41.313Z" style="fill:rgb(2,124,66);"/>
        </g>
        <g transform="matrix(0.866014,0,0,0.869844,-152.253474,-398.995962)">
            <path d="M55.197,-23.731L83.656,-39.785C111.344,-49.118 154.28,-62.363 164.569,-65.524C166.032,-65.974 167.61,-65.875 169.006,-65.248C182.56,-59.16 255.719,-26.301 274.723,-17.766C277.462,-16.535 279.209,-13.795 279.168,-10.792C278.923,7.1 278.074,69.184 277.609,103.204C277.37,120.674 271.413,137.584 260.649,151.347C235.237,183.927 209.28,191.606 171.916,212.046C168.716,213.803 164.833,213.769 161.664,211.956C127.761,192.63 104.243,174.769 83.474,156.329C66.561,141.363 56.77,119.938 56.524,97.355C56.019,51.702 55.197,-23.731 55.197,-23.731Z" style="fill:rgb(1,109,58);"/>
        </g>
        <g transform="matrix(1.384205,0,0,1.390327,-223.685467,153.436637)">
            <path d="M94.061,-400.871C94.024,-402.146 94.798,-403.305 95.989,-403.76C104.553,-407.03 138.374,-419.947 150.152,-424.445C151.074,-424.798 152.11,-424.674 152.924,-424.114C153.737,-423.554 154.222,-422.63 154.222,-421.643L154.222,-383.361C154.222,-382.906 153.989,-382.482 153.604,-382.239C153.219,-381.995 152.737,-381.966 152.325,-382.161C149.152,-383.664 142.905,-386.624 140.751,-387.644C140.26,-387.877 139.841,-388.239 139.539,-388.691C138.65,-390.025 136.668,-392.999 135.332,-395.002C134.553,-396.17 133.069,-396.642 131.759,-396.138C129.223,-395.163 125.144,-393.594 122.804,-392.694C121.706,-392.271 120.956,-391.245 120.886,-390.07C120.691,-386.752 120.295,-380.015 120.105,-376.793C120.041,-375.689 120.588,-374.639 121.531,-374.06C127.358,-370.485 148.07,-357.775 153.11,-354.682C153.801,-354.258 154.222,-353.506 154.222,-352.696L154.222,-273.314C154.222,-272.823 153.966,-272.367 153.545,-272.113C153.125,-271.859 152.603,-271.843 152.168,-272.072C134.21,-281.624 115.066,-296.323 99.642,-312.841C96.592,-316.133 94.761,-320.37 94.453,-324.847C93.626,-336.73 93.483,-347.457 93.842,-352.415C93.886,-352.797 94.103,-353.138 94.43,-353.341C94.756,-353.545 95.158,-353.588 95.521,-353.459C99.592,-352.016 110.726,-348.067 115.151,-346.497C116.3,-346.09 117.154,-345.115 117.407,-343.922C118.126,-340.535 119.622,-333.493 120.438,-329.647C120.757,-328.143 122.162,-327.124 123.691,-327.287C124.472,-327.371 125.325,-327.462 126.104,-327.545C127.613,-327.706 128.764,-328.968 128.785,-330.486C128.838,-334.261 128.933,-341.063 128.977,-344.189C128.991,-345.218 128.477,-346.182 127.615,-346.744C122.247,-350.242 102.811,-362.909 96.791,-366.833C95.669,-367.564 94.977,-368.798 94.939,-370.136C94.76,-376.393 94.239,-394.625 94.061,-400.871Z" style="fill:white;"/>
        </g>
        <g transform="matrix(1.384205,0,0,1.390327,-223.685467,153.436637)">
            <path d="M163.138,-424.304C162.212,-424.683 161.159,-424.577 160.329,-424.02C159.498,-423.462 159,-422.528 159,-421.528L159,-273.025C159,-272.562 159.227,-272.128 159.607,-271.865C159.988,-271.601 160.473,-271.54 160.907,-271.703C167.49,-274.285 174.999,-278.648 180.87,-282.295C181.58,-282.737 182.038,-283.49 182.103,-284.324C182.558,-290.156 184.383,-313.54 184.876,-319.869C184.954,-320.86 185.518,-321.749 186.382,-322.242C188.832,-323.638 193.98,-326.57 197.197,-328.403C197.799,-328.746 198.534,-328.753 199.143,-328.423C199.751,-328.092 200.145,-327.471 200.184,-326.78C200.559,-320.216 201.409,-305.336 201.799,-298.524C201.833,-297.921 202.226,-297.397 202.796,-297.195C203.365,-296.993 204.001,-297.153 204.407,-297.601C209.525,-303.322 214.465,-310.102 218.966,-319.497C220.296,-322.272 220.967,-325.317 220.927,-328.394C220.755,-342.897 220.157,-388.89 220.026,-399.016C220.01,-400.219 219.277,-401.296 218.164,-401.753C209.796,-405.182 175.165,-419.375 163.138,-424.304Z" style="fill:white;"/>
            <g transform="matrix(1,0,0,1,6,-2.658628)">
                <path d="M182.446,-368.38C182.518,-368.851 182.892,-369.218 183.364,-369.281C183.837,-369.344 184.294,-369.089 184.487,-368.654C186.267,-364.65 189.16,-358.14 190.402,-355.344C190.748,-354.566 190.488,-353.652 189.783,-353.173C187.468,-351.599 182.455,-348.191 180.174,-346.639C179.97,-346.501 179.704,-346.496 179.496,-346.628C179.288,-346.759 179.177,-347.001 179.215,-347.244C179.819,-351.197 181.55,-362.516 182.446,-368.38Z" style="fill:rgb(1,109,58);"/>
            </g>
        </g>
    </g>
    <g transform="matrix(1.04802,0,0,1.107018,905.313337,224.202758)">
        <g transform="matrix(152.944025,0,0,212.106829,85.076859,62.419212)">
            <path d="M0.234,-0.097L0.234,-0.247L0.918,-0.247L0.918,-0.097L0.234,-0.097ZM0.01,-0L0.439,-0.64L0.717,-0.64L1.15,-0L0.875,-0L0.504,-0.573L0.653,-0.573L0.285,-0L0.01,-0Z" style="fill:rgb(255,150,0);fill-rule:nonzero;"/>
        </g>
        <g transform="matrix(152.944025,0,0,212.106829,257.903607,62.419212)">
            <path d="M0.045,-0.49L0.285,-0.49L0.285,-0L0.045,-0L0.045,-0.49ZM0.645,-0.505C0.684,-0.505 0.722,-0.501 0.759,-0.492C0.796,-0.484 0.829,-0.47 0.858,-0.45C0.886,-0.43 0.91,-0.403 0.927,-0.368C0.944,-0.333 0.953,-0.29 0.953,-0.237L0.953,-0L0.713,-0L0.713,-0.207C0.713,-0.257 0.7,-0.293 0.674,-0.314C0.648,-0.335 0.601,-0.345 0.533,-0.345C0.497,-0.345 0.462,-0.341 0.428,-0.333C0.395,-0.325 0.365,-0.316 0.338,-0.304C0.311,-0.294 0.29,-0.283 0.275,-0.272L0.273,-0.31C0.276,-0.322 0.285,-0.339 0.3,-0.36C0.316,-0.382 0.339,-0.404 0.369,-0.426C0.399,-0.448 0.437,-0.467 0.482,-0.482C0.528,-0.497 0.582,-0.505 0.645,-0.505ZM1.301,-0.505C1.34,-0.505 1.378,-0.501 1.415,-0.492C1.452,-0.484 1.484,-0.47 1.514,-0.45C1.542,-0.43 1.566,-0.403 1.583,-0.368C1.6,-0.333 1.609,-0.29 1.609,-0.237L1.609,-0L1.369,-0L1.369,-0.207C1.369,-0.257 1.356,-0.293 1.33,-0.314C1.304,-0.335 1.257,-0.345 1.189,-0.345C1.153,-0.345 1.118,-0.341 1.085,-0.333C1.051,-0.325 1.021,-0.316 0.994,-0.304C0.967,-0.294 0.946,-0.283 0.931,-0.272L0.929,-0.32C0.932,-0.33 0.942,-0.345 0.959,-0.365C0.976,-0.385 1.001,-0.406 1.032,-0.427C1.064,-0.448 1.103,-0.467 1.147,-0.482C1.193,-0.497 1.244,-0.505 1.301,-0.505Z" style="fill:rgb(255,150,0);fill-rule:nonzero;"/>
        </g>
    </g>
</svg>
